# xmcd
#
# Track frame offsets: 
#        150
#        15432
#        24814
#        33895
#        45353
#        60683
#        73600
#        90861
#        102619
#        117471
#        136968
#        150345
#
# Disc length: 2139 seconds
#
# Revision: 3
# Processed by: cddbd v1.5.2PL0 Copyright (c) Steve Scherf et al.
# Submitted via: ExactAudioCopyFreeDBPlugin 1.0
#
DISCID=8608590c
DTITLE=Bill Withers - Just As I Am
DYEAR=1971
DGENRE=Soul
TTITLE0=Harlem
TTITLE1=Ain't No Sunshine
TTITLE2=Grandma's Hands
TTITLE3=Sweet Wanomi
TTITLE4=Everybody's Talkin'
TTITLE5=Do It Good
TTITLE6=Hope She'll Be Happier
TTITLE7=Let It Be
TTITLE8=I'm Her Daddy
TTITLE9=In My Heart
TTITLE10=Moanin' and Groanin'
TTITLE11=Better Off Dead
EXTD=
EXTT0=
EXTT1=
EXTT2=
EXTT3=
EXTT4=
EXTT5=
EXTT6=
EXTT7=
EXTT8=
EXTT9=
EXTT10=
EXTT11=
PLAYORDER=
